#N canvas 0 23 880 782 12;
#X obj 82 462 line~;
#X obj 80 503 tabread4~ grainArray;
#X msg 81 418 \$1 \, \$2 \$3;
#X floatatom 98 137 10 0 0 0 - - - 0;
#X obj 98 159 t f f;
#X obj 93 370 pack f f f;
#X obj 127 342 +;
#X floatatom 187 206 5 0 0 0 - - - 0;
#X obj 185 268 * 44.1;
#X obj 359 198 loadbang;
#X obj 359 222 samplerate~;
#X obj 359 246 / 1000;
#X obj 187 167 r grain_dur;
#X obj 104 53 inlet;
#X obj 80 611 outlet~;
#X obj 101 89 t f b, f 66;
#X obj 569 158 t b b;
#X obj 569 182 del 50;
#X msg 621 203 1;
#X msg 569 206 0;
#X obj 569 254 line~;
#X obj 78 560 *~, f 69;
#X obj 629 112 r grain_dur;
#X obj 629 136 - 50;
#X obj 569 230 pack f 50;
#X obj 206 294 r grain_transpose;
#X obj 206 354 t b f;
#X obj 200 379 / 1;
#X connect 0 0 1 0;
#X connect 1 0 21 0;
#X connect 2 0 0 0;
#X connect 3 0 4 0;
#X connect 4 0 5 0;
#X connect 4 1 6 0;
#X connect 5 0 2 0;
#X connect 6 0 5 1;
#X connect 7 0 8 0;
#X connect 7 0 27 0;
#X connect 8 0 6 1;
#X connect 9 0 10 0;
#X connect 10 0 11 0;
#X connect 11 0 8 1;
#X connect 12 0 7 0;
#X connect 13 0 15 0;
#X connect 15 0 3 0;
#X connect 15 1 16 0;
#X connect 16 0 17 0;
#X connect 16 1 18 0;
#X connect 17 0 19 0;
#X connect 18 0 24 0;
#X connect 19 0 24 0;
#X connect 20 0 21 1;
#X connect 21 0 14 0;
#X connect 22 0 23 0;
#X connect 23 0 17 1;
#X connect 24 0 20 0;
#X connect 25 0 26 0;
#X connect 26 0 27 0;
#X connect 26 1 27 1;
#X connect 27 0 5 2;
