#N canvas 827 239 527 327 12;
#X obj 634 27 array define grainArray;
#X obj 373 58 soundfiler;
#X floatatom 373 101 17 0 0 0 - - - 24;
#X msg 373 21 read -resize yoshicity.wav grainArray;
#X msg 395 293 0 \, 1e+06 30000;
#X obj 234 212 s grain_dur;
#X floatatom 234 160 5 0 0 0 - - - 24;
#X floatatom 60 131 7 0 0 0 - - - 16;
#X obj 60 274 output~;
#X msg 218 58 500000;
#X msg 60 179 next \$1;
#X obj 55 44 metro 500;
#X obj 55 84 random 1e+06;
#X obj 55 5 tgl 26 0 empty empty empty 17 7 0 10 #e3dfd9 #5a5a5a #5a5a5a 0 1;
#N canvas 0 22 450 300 grain 0;
#X obj 62 481 line~;
#X obj 62 516 tabread4~ grainArray;
#X floatatom 62 78 15 0 0 0 - - - 12;
#X obj 62 109 t f f;
#X obj 70 380 pack f f f, f 17;
#X msg 70 410 \$1 \, \$2 \$3;
#X obj 118 340 +;
#X floatatom 167 245 5 0 0 0 - - - 12;
#X obj 129 294 * 44.1;
#X obj 252 180 loadbang;
#X obj 252 213 samplerate~;
#X obj 252 245 / 1000;
#X obj 167 204 r grain_dur;
#X obj 62 12 inlet;
#X obj 62 555 outlet~;
#X obj 69 49 t f b, f 50;
#X obj 429 109 t b b;
#X obj 429 153 del 50;
#X msg 429 179 0;
#X obj 429 205 pack f 50;
#X obj 429 231 line~;
#X obj 494 109 - 50;
#X obj 494 68 r grain_dur;
#X msg 488 171 1;
#X connect 0 0 1 0;
#X connect 1 0 14 0;
#X connect 2 0 3 0;
#X connect 3 0 4 0;
#X connect 3 1 6 0;
#X connect 4 0 5 0;
#X connect 5 0 0 0;
#X connect 6 0 4 1;
#X connect 7 0 8 0;
#X connect 7 0 4 2;
#X connect 8 0 6 1;
#X connect 9 0 10 0;
#X connect 10 0 11 0;
#X connect 11 0 8 1;
#X connect 12 0 7 0;
#X connect 13 0 15 0;
#X connect 15 0 2 0;
#X connect 16 0 17 0;
#X connect 16 1 23 0;
#X connect 17 0 18 0;
#X connect 18 0 19 0;
#X connect 19 0 20 0;
#X connect 21 0 17 1;
#X connect 22 0 21 0;
#X connect 23 0 19 0;
#X restore 60 232 pd grain;
#X connect 1 0 2 0;
#X connect 3 0 1 0;
#X connect 6 0 5 0;
#X connect 7 0 10 0;
#X connect 9 0 7 0;
#X connect 10 0 14 0;
#X connect 11 0 12 0;
#X connect 12 0 7 0;
#X connect 13 0 11 0;
#X connect 14 0 8 0;
