#N canvas -49 -1021 1375 583 12;
#X obj 386 135 soundfiler;
#X floatatom 386 158 18 0 0 0 - - - 24;
#X obj 471 15 array define grainArray;
#X floatatom 1866 342 10 0 0 0 - - - 0;
#X obj 528 382 s grain_dur;
#X floatatom 528 353 5 0 0 0 - - - 0;
#X obj 1866 433 clone grain 16;
#X obj 1866 457 *~ 0.5;
#X msg 1866 378 next \$1;
#X obj 1866 221 phasor~;
#X obj 1866 267 *~;
#X obj 386 194 send fileDuration;
#X obj 1958 208 receive fileDuration;
#X floatatom 1958 232 10 0 0 0 - - - 0;
#X obj 1866 309 snapshot~;
#X obj 2107 294 metro 125;
#X floatatom 1866 76 5 0 0 0 - - - 0;
#X obj 1866 15 receive fileDuration;
#X obj 1866 39 expr $f2 / $f1;
#X obj 2018 15 loadbang;
#X obj 2018 38 samplerate~;
#X obj 1865 153 * 1, f 6;
#X obj 1871 128 t b f;
#X floatatom 186 354 5 0 0 0 - - - 0;
#X floatatom 2166 267 5 0 0 0 - - - 0;
#X obj 2107 318 random 10;
#X obj 2107 353 + 50;
#X floatatom 2194 314 5 0 0 0 - - - 0;
#X floatatom 365 354 5 0 0 0 - - - 0;
#X obj 374 319 hsl 135 30 10 2000 1 0 empty empty empty -2 -8 0 10 #fce0c4 #000000 #000000 0 1;
#X obj 537 319 hsl 133 30 20 2000 0 0 empty empty empty -2 -8 0 10 #fcfcc4 #000000 #000000 0 1;
#X obj 385 15 loadbang;
#X obj 195 319 hsl 128 28 -2 2 0 0 empty empty empty -2 -8 0 10 #c4fcc4 #000000 #000000 0 1;
#X obj 186 274 loadbang;
#X msg 186 296 0.25;
#X floatatom 683 356 5 0 0 0 - - - 0;
#X obj 693 319 hsl 134 30 0.1 2 0 0 empty empty empty -2 -8 0 10 #c4fcfc #000000 #000000 0 1;
#X obj 683 382 s grain_transpose;
#X obj 528 274 loadbang;
#X obj 685 274 loadbang;
#X msg 685 296 1;
#X msg 528 296 600;
#X msg 386 58 read -resize portal_music.wav grainArray;
#X text 1972 432 <-- патч grain.pd;
#X text 1912 73 скорость семпла;
#X obj 186 382 s playback_rate;
#X obj 2057 77 r playback_rate;
#X obj 365 382 s grain_rate;
#X obj 2169 353 r grain_rate;
#X obj 365 274 loadbang;
#X msg 365 296 600;
#X text 186 429 нормальная - 1;
#X text 25 19 Это мини-проект;
#X text 25 45 гранулярного синтезатора;
#X text 25 71 Чтобы добавить свой семпл \, нужно;
#X text 25 97 добавить его в папку \, а затем;
#X text 25 123 создать с ним месседж бокс.;
#X text 25 149 Прим: read -resize SAMPLENAME.wav grainArray;
#X text 25 175 Подготовили Кондратьев и Лаврухин;
#X msg 416 93 место для ваших семплов;
#X text 365 433 появляются семплы;
#X text 365 407 Частота с которой;
#X text 186 407 Частота воспроизведения;
#X text 528 407 Длина грейна;
#X text 683 407 Транспозиция;
#X obj 2106 185 r ON;
#X obj 25 328 s ON;
#X obj 25 274 tgl 48 0 empty empty empty 17 7 0 10 #fce0c4 #000000 #000000 0 1;
#X obj 343 11 vsl 7 211 0 127 0 0 empty empty empty 0 -9 0 10 #000000 #000000 #5a5a5a 0 1;
#X text 25 238 Вкл/Выкл, f 10;
#X text 659 56 Выбор семплов;
#X text 659 162 Длина семлов в семплах);
#X text 861 235 Если что все приколы там -->;
#X obj 1869 523 s~ volume;
#X obj 25 361 r~ volume;
#X obj 25 390 output~;
#X connect 0 0 1 0;
#X connect 1 0 11 0;
#X connect 3 0 8 0;
#X connect 5 0 4 0;
#X connect 6 0 7 0;
#X connect 7 0 73 0;
#X connect 8 0 6 0;
#X connect 9 0 10 0;
#X connect 10 0 14 0;
#X connect 12 0 13 0;
#X connect 13 0 10 1;
#X connect 14 0 3 0;
#X connect 15 0 14 0;
#X connect 15 0 25 0;
#X connect 16 0 21 0;
#X connect 17 0 18 0;
#X connect 18 0 16 0;
#X connect 19 0 20 0;
#X connect 20 0 18 1;
#X connect 21 0 9 0;
#X connect 22 0 21 0;
#X connect 22 1 21 1;
#X connect 23 0 45 0;
#X connect 24 0 15 1;
#X connect 25 0 26 0;
#X connect 26 0 24 0;
#X connect 27 0 25 1;
#X connect 28 0 47 0;
#X connect 29 0 28 0;
#X connect 30 0 5 0;
#X connect 31 0 42 0;
#X connect 32 0 23 0;
#X connect 33 0 34 0;
#X connect 34 0 32 0;
#X connect 35 0 37 0;
#X connect 36 0 35 0;
#X connect 38 0 41 0;
#X connect 39 0 40 0;
#X connect 40 0 36 0;
#X connect 41 0 30 0;
#X connect 42 0 0 0;
#X connect 46 0 22 0;
#X connect 48 0 26 1;
#X connect 49 0 50 0;
#X connect 50 0 29 0;
#X connect 59 0 0 0;
#X connect 65 0 15 0;
#X connect 67 0 66 0;
#X connect 74 0 75 0;
